<svg width="62" height="62" xmlns="http://www.w3.org/2000/svg" class="el-tooltip" preserveAspectRatio="xMidYMid meet">

 <g>
  <title>background</title>
  <rect fill="none" id="canvas_background" height="64" width="64" y="-1" x="-1"/>
 </g>
 <g>
  <title>Layer 1</title>
  <rect stroke="null" x="-0.000002" y="-14.000002" id="svg_1" fill="#ff78cb" height="78.000005" width="80.999994"/>
  <g id="svg_3" fill="#fff">
   <polyline id="svg_4" points="23.820480346679688,56.54285430908203 3,56.54285430908203 3,5 58.940948486328125,5 58.940948486328125,56.54285430908203 38.12046813964844,56.54285430908203 " fill-opacity="0" stroke-width="3" stroke="#fff"/>
   <g id="svg_5">
    <rect id="svg_6" fill-opacity="0" height="51.542856" width="55.940952" y="5" x="3"/>
    <!---->
    <g id="svg_7">
     <g id="svg_8">
      <g id="svg_9">
       <path id="svg_10" d="m36.92,18.32l-17.52,0l0,0q-1,0 -1.84,0.74l0,0l0,0q-0.84,0.74 -0.84,2.14l0,0l0,23.24l0,0q0,0.76 -0.54,1.3l0,0l0,0q-0.54,0.54 -1.34,0.54l0,0l0,0q-0.76,0 -1.3,-0.54l0,0l0,0q-0.54,-0.54 -0.54,-1.3l0,0l0,-23.88l0,0q0,-1.2 0.42,-2.2l0,0l0,0q0.42,-1 1.14,-1.76l0,0l0,0q0.72,-0.76 1.72,-1.18l0,0l0,0q1,-0.42 2.16,-0.42l0,0l23.92,0l0,0q1.64,0 2.88,1.2l0,0l0,0q1.24,1.2 2.08,3.22l0,0l0,0q0.84,2.02 1.24,4.62l0,0l0,0q0.4,2.6 0.38,5.38l0,0l0,0q-0.02,2.78 -0.52,5.54l0,0l0,0q-0.5,2.76 -1.44,5.08l0,0l0,0q-0.94,2.32 -2.38,4.02l0,0l0,0q-1.44,1.7 -3.36,2.34l0,0l0,0q-0.48,0.2 -0.96,0.12l0,0l0,0q-0.48,-0.08 -0.48,-0.76l0,0l0,-24.56l0,0q0,-1.4 -0.84,-2.14l0,0l0,0q-0.84,-0.74 -2.04,-0.74l0,0zm-4.88,5.52l0,16.92l0,0q0,1.28 -0.46,2.26l0,0l0,0q-0.46,0.98 -1.22,1.68l0,0l0,0q-0.76,0.7 -1.74,1.06l0,0l0,0q-0.98,0.36 -2.02,0.36l0,0l0,0q-0.32,0 -0.58,-0.24l0,0l0,0q-0.26,-0.24 -0.26,-0.56l0,0l0,-21.48l0,0q0,-1.44 0.98,-2.16l0,0l0,0q0.98,-0.72 2.16,-0.72l0,0l0,0q1.18,0 2.16,0.72l0,0l0,0q0.98,0.72 0.98,2.16l0,0z"/>
      </g>
      <!---->
     </g>
    </g>
   </g>
   <g id="svg_11">
    <!---->
    <!---->
    <!---->
    <g id="svg_12">
     <path id="svg_13" d="m35.116727,52.250978l0,8.58l-1.12,0l0,-5.06l0,0q0,-0.71 0,-2.16l0,0l-2.44,7.22l-1.17,0l-2.39,-7.22l-0.05,0l0,0q0,0.52 0.05,1.55l0,0l0,0q0,0.51 0,0.61l0,0l0,5.06l-1.18,0l0,-8.58l1.69,0l2.49,7.27l2.43,-7.27l1.69,0z"/>
    </g>
   </g>
  </g>
 </g>
</svg>